<svg width="169" height="35" viewBox="0 0 169 35" fill="none" xmlns="http://www.w3.org/2000/svg">
<path d="M46.88 28V4.64H51.424V28H46.88ZM50.784 18.272V14.432L60.128 14.4V18.24L50.784 18.272ZM50.784 8.48V4.64H60.576V8.48H50.784ZM63.7675 28V10.624H68.2155V28H63.7675ZM61.3355 13.952V10.624H68.2155V13.952H61.3355ZM65.3995 8.544C64.5248 8.544 63.8742 8.32 63.4475 7.872C63.0422 7.40267 62.8395 6.82667 62.8395 6.144C62.8395 5.41867 63.0422 4.832 63.4475 4.384C63.8742 3.936 64.5248 3.712 65.3995 3.712C66.2742 3.712 66.9142 3.936 67.3195 4.384C67.7248 4.832 67.9275 5.41867 67.9275 6.144C67.9275 6.82667 67.7248 7.40267 67.3195 7.872C66.9142 8.32 66.2742 8.544 65.3995 8.544ZM72.0618 28V10.624H75.5818V18.08H75.2618C75.2618 16.3093 75.4964 14.8373 75.9658 13.664C76.4351 12.4693 77.1284 11.5733 78.0458 10.976C78.9844 10.3787 80.1471 10.08 81.5338 10.08H81.7258C83.7951 10.08 85.3631 10.752 86.4298 12.096C87.4964 13.4187 88.0298 15.4027 88.0298 18.048V28H83.5818V17.664C83.5818 16.5973 83.2724 15.7333 82.6538 15.072C82.0564 14.4107 81.2244 14.08 80.1578 14.08C79.0698 14.08 78.1844 14.4213 77.5018 15.104C76.8404 15.7653 76.5098 16.6613 76.5098 17.792V28H72.0618ZM91.5317 34.4V10.624H95.0518V18.112L94.5078 18.08C94.5931 16.3093 94.9558 14.8267 95.5958 13.632C96.2571 12.4373 97.1318 11.552 98.2198 10.976C99.3078 10.3787 100.524 10.08 101.868 10.08C103.105 10.08 104.214 10.304 105.196 10.752C106.198 11.2 107.052 11.8293 107.756 12.64C108.481 13.4507 109.036 14.4 109.42 15.488C109.804 16.5547 109.996 17.7067 109.996 18.944V19.616C109.996 20.8747 109.804 22.048 109.42 23.136C109.057 24.2027 108.513 25.152 107.788 25.984C107.084 26.7947 106.23 27.4347 105.228 27.904C104.225 28.352 103.105 28.576 101.868 28.576C100.566 28.576 99.3718 28.3093 98.2838 27.776C97.2171 27.2213 96.3531 26.3787 95.6918 25.248C95.0304 24.096 94.6571 22.6133 94.5718 20.8L95.9798 22.944V34.4H91.5317ZM100.748 24.832C101.708 24.832 102.54 24.5973 103.244 24.128C103.969 23.6587 104.534 23.008 104.94 22.176C105.345 21.3227 105.548 20.3627 105.548 19.296C105.548 18.1867 105.345 17.2267 104.94 16.416C104.534 15.6053 103.969 14.976 103.244 14.528C102.54 14.0587 101.708 13.824 100.748 13.824C99.8731 13.824 99.0624 14.016 98.3158 14.4C97.5904 14.784 96.9931 15.3493 96.5238 16.096C96.0758 16.8427 95.8518 17.7387 95.8518 18.784V20.064C95.8518 21.0667 96.0864 21.92 96.5558 22.624C97.0251 23.328 97.6331 23.872 98.3798 24.256C99.1264 24.64 99.9158 24.832 100.748 24.832ZM123.155 28V22.848H122.419V17.12C122.419 16.1173 122.173 15.3707 121.683 14.88C121.192 14.3893 120.435 14.144 119.411 14.144C118.877 14.144 118.237 14.1547 117.491 14.176C116.744 14.1973 115.987 14.2293 115.219 14.272C114.472 14.2933 113.8 14.3253 113.203 14.368V10.592C113.693 10.5493 114.248 10.5067 114.867 10.464C115.485 10.4213 116.115 10.4 116.755 10.4C117.416 10.3787 118.035 10.368 118.611 10.368C120.403 10.368 121.885 10.6027 123.059 11.072C124.253 11.5413 125.149 12.2773 125.747 13.28C126.365 14.2827 126.675 15.5947 126.675 17.216V28H123.155ZM117.555 28.448C116.296 28.448 115.187 28.224 114.227 27.776C113.288 27.328 112.552 26.688 112.019 25.856C111.507 25.024 111.251 24.0213 111.251 22.848C111.251 21.568 111.56 20.5227 112.179 19.712C112.819 18.9013 113.704 18.2933 114.835 17.888C115.987 17.4827 117.331 17.28 118.867 17.28H122.899V19.936H118.803C117.779 19.936 116.989 20.192 116.435 20.704C115.901 21.1947 115.635 21.8347 115.635 22.624C115.635 23.4133 115.901 24.0533 116.435 24.544C116.989 25.0347 117.779 25.28 118.803 25.28C119.421 25.28 119.987 25.1733 120.499 24.96C121.032 24.7253 121.469 24.3413 121.811 23.808C122.173 23.2533 122.376 22.5067 122.419 21.568L123.507 22.816C123.4 24.032 123.101 25.056 122.611 25.888C122.141 26.72 121.48 27.36 120.627 27.808C119.795 28.2347 118.771 28.448 117.555 28.448ZM136.943 34.848C136.111 34.848 135.258 34.816 134.383 34.752C133.53 34.688 132.73 34.6027 131.983 34.496V30.784C132.751 30.8693 133.573 30.944 134.447 31.008C135.322 31.0933 136.143 31.136 136.911 31.136C138.341 31.136 139.493 30.9653 140.367 30.624C141.263 30.2827 141.914 29.7387 142.319 28.992C142.746 28.2667 142.959 27.3387 142.959 26.208V22.784L143.919 20.608C143.855 22.208 143.525 23.5733 142.927 24.704C142.33 25.8133 141.519 26.6667 140.495 27.264C139.471 27.84 138.287 28.128 136.943 28.128C135.749 28.128 134.661 27.904 133.679 27.456C132.719 27.008 131.887 26.3893 131.183 25.6C130.501 24.8107 129.967 23.8827 129.583 22.816C129.199 21.7493 129.007 20.608 129.007 19.392V18.72C129.007 17.504 129.199 16.3733 129.583 15.328C129.989 14.2613 130.554 13.3333 131.279 12.544C132.005 11.7547 132.869 11.1467 133.871 10.72C134.874 10.2933 135.983 10.08 137.199 10.08C138.629 10.08 139.866 10.3893 140.911 11.008C141.978 11.6267 142.81 12.5227 143.407 13.696C144.005 14.8693 144.335 16.3093 144.399 18.016L143.631 18.144V10.624H147.151V25.952C147.151 28.064 146.789 29.7707 146.063 31.072C145.338 32.3733 144.218 33.3227 142.703 33.92C141.21 34.5387 139.29 34.848 136.943 34.848ZM138.223 24.32C139.077 24.32 139.855 24.128 140.559 23.744C141.263 23.36 141.829 22.8053 142.255 22.08C142.682 21.3547 142.895 20.48 142.895 19.456V18.336C142.895 17.3547 142.671 16.5227 142.223 15.84C141.797 15.1573 141.231 14.6453 140.527 14.304C139.823 13.9413 139.055 13.76 138.223 13.76C137.285 13.76 136.453 13.984 135.727 14.432C135.023 14.8587 134.469 15.4667 134.063 16.256C133.658 17.0453 133.455 17.984 133.455 19.072C133.455 20.1387 133.658 21.0667 134.063 21.856C134.469 22.6453 135.023 23.2533 135.727 23.68C136.453 24.1067 137.285 24.32 138.223 24.32ZM158.499 28.608C157.006 28.608 155.694 28.352 154.563 27.84C153.454 27.328 152.526 26.6453 151.779 25.792C151.054 24.9173 150.499 23.9467 150.115 22.88C149.752 21.8133 149.571 20.7253 149.571 19.616V19.008C149.571 17.856 149.752 16.7467 150.115 15.68C150.499 14.592 151.054 13.632 151.779 12.8C152.526 11.9467 153.443 11.2747 154.531 10.784C155.619 10.272 156.878 10.016 158.307 10.016C160.184 10.016 161.752 10.432 163.011 11.264C164.291 12.0747 165.251 13.152 165.891 14.496C166.531 15.8187 166.851 17.248 166.851 18.784V20.384H151.459V17.664H164.067L162.691 19.008C162.691 17.8987 162.531 16.9493 162.211 16.16C161.891 15.3707 161.4 14.7627 160.739 14.336C160.099 13.9093 159.288 13.696 158.307 13.696C157.326 13.696 156.494 13.92 155.811 14.368C155.128 14.816 154.606 15.4667 154.243 16.32C153.902 17.152 153.731 18.1547 153.731 19.328C153.731 20.416 153.902 21.3867 154.243 22.24C154.584 23.072 155.107 23.7333 155.811 24.224C156.515 24.6933 157.411 24.928 158.499 24.928C159.587 24.928 160.472 24.7147 161.155 24.288C161.838 23.84 162.275 23.296 162.467 22.656H166.563C166.307 23.8507 165.816 24.896 165.091 25.792C164.366 26.688 163.438 27.3813 162.307 27.872C161.198 28.3627 159.928 28.608 158.499 28.608Z" fill="white"/>
<path d="M12.8856 10.8083H28.5021C30.6583 10.8083 32.4063 9.06033 32.4063 6.90414C32.4063 4.74794 30.6583 3 28.5021 3H12.8367C10.6805 3 8.93258 4.74794 8.93258 6.90414C8.93258 9.06033 7.18464 10.8083 5.02845 10.8083H4.84424C2.75241 10.8083 1.05664 12.504 1.05664 14.5959C1.05664 16.6877 2.75241 18.3835 4.84424 18.3835H5.3104C7.40223 18.3835 9.09799 16.6877 9.09799 14.5959C9.09799 12.504 10.7938 10.8083 12.8856 10.8083Z" fill="white" stroke="white" stroke-width="0.233083"/>
<path d="M12.8856 26.4248H23.0435C25.1997 26.4248 26.9476 24.6769 26.9476 22.5207C26.9476 20.3645 25.1997 18.6166 23.0435 18.6166H12.8367C10.6805 18.6166 8.93258 20.3645 8.93258 22.5207C8.93258 24.6769 7.18464 26.4248 5.02845 26.4248H4.84424C2.75241 26.4248 1.05664 28.1206 1.05664 30.2124C1.05664 32.3043 2.75241 34 4.84424 34H5.3104C7.40223 34 9.09799 32.3043 9.09799 30.2124C9.09799 28.1206 10.7938 26.4248 12.8856 26.4248Z" fill="white" stroke="white" stroke-width="0.233083"/>
</svg>
